<svg xmlns="http://www.w3.org/2000/svg" viewBox="0 0 600 600">
    <linearGradient id="a" gradientUnits="userSpaceOnUse" x1="302.923" y1="531.8" x2="302.923" y2="85.8">
        <stop offset="0" stop-color="#4eb3ff"/>
        <stop offset="1" stop-color="#86eab3"/>
    </linearGradient>
    <g stroke="url(#a)" fill="none" stroke-width="20" stroke-linecap="round" stroke-linejoin="round" stroke-miterlimit="10">
        <path d="M133.6 287.7c10.5-90.6 87.5-161 180.9-161 71.9 0 134 41.6 163.6 102.1M466.2 409.4c-32.6 49.1-88.4 81.5-151.8 81.5-94.1 0-171.5-71.4-181.1-162.9"/>
        <path d="M354 163.9c17.7 4.7 34.2 12.5 48.7 22.8 2.4 1.7 4.7 3.4 6.9 5.2 6.8 5.4 13.1 11.4 18.8 17.8 9.1 10.2 16.8 21.7 22.9 34.1M315.3 461.7c-83.6 0-151.4-67.8-151.4-151.4 0-66.6 43-123.2 102.8-143.4 3.3-1.1 6.6-2.1 9.9-3 12.4-3.3 25.3-5 38.7-5M441.5 394c-13.8 20.8-32.6 37.9-54.6 49.8"/>
        <path d="M262.7 414.5c2.8 1.4 5.7 2.7 8.6 3.9C285 424 300 427 315.8 427c43.4 0 81.3-23.3 101.9-58.1l-2.6 3.8c13.3-22.2 42-29.4 64.1-16.1 20.1 12.1 29 38.3 15.4 64.4-37.6 60.5-104.6 100.8-181 100.8-117.6 0-213-95.3-213-213s95.3-213 213-213c82.6 0 162.1 44.3 189.5 115.7l-5.3-12.2c14.6 24.9 6.5 57.7-13.6 69.7-22.1 13.3-50.8 6.1-64.1-16.1l1 1.9c-19.6-38.2-59.4-64.4-105.3-64.4-65.3 0-118.3 53-118.3 118.3 0 27.1 9.1 52.1 24.5 72.1"/>
    </g>
</svg>
