<svg xmlns="http://www.w3.org/2000/svg" width="107.5" height="88.6" viewBox="0 0 107.5 88.6">
    <path fill="#d0d2d3" d="M72.7.4c-1.6-.8-2.9 0-2.9 1.8V73l29.1 14.5c3.2 1.6 5.8.5 5.8-2.5V16.8c0-.3-.2-.5-.4-.7L72.7.4z"/>
    <path fill="#a6a8ab" d="M34.9 55.6L68.1 1.7c.9-1.5 3-2.1 4.6-1.3l31.6 15.8c.2.1.3.4.2.6L69.8 73 34.9 55.6z"/>
    <path fill="#808184" d="M4.8 1.3C2.2 0 1.3 1 2.8 3.5l32.1 52.1L69.8 73 35 16.5c0-.1-.1-.1-.2-.2l-30-15z"/>
    <path fill="#4b4c4c" d="M34.9 85.1c0 3-2.2 4.3-4.8 3L2.9 74.5C1.3 73.7 0 71.6 0 69.8V3.2C0 .8 1.7-.3 3.9.8l30.8 15.4c.1.1.2.2.2.3v68.6z"/>
    <path fill="#d0d2d3" d="M-270.1-80.5c-1.5-.7-2.7 0-2.7 1.7v202.9l88.9 44.4c4.4 2.2 8 0 8-5V-31.8c0-1-.6-1.9-1.4-2.3l-92.8-46.4z"/>
    <path fill="#a6a8ab" d="M-369.7 75.7l95.3-154.9c.9-1.4 2.8-2 4.3-1.2l92.1 46c1.1.6 1.6 2 .9 3.1l-95.7 155.4-96.9-48.4z"/>
    <path fill="#808184" d="M-455.9-76.4c-5.9-3-7.9-.8-4.4 4.9l90.6 147.2 96.9 48.5-96.3-156.4c-.4-.7-1-1.2-1.7-1.6l-85.1-42.6z"/>
    <path fill="#4b4c4c" d="M-369.7 163.6c0 4.9-3.6 7.2-8 5l-83.5-41.7c-3-1.5-5.4-5.4-5.4-8.7v-194c0-3.3 2.4-4.8 5.4-3.3l90.3 45.2c.7.4 1.2 1.1 1.2 1.9v195.6z"/>
    <path fill="#231f20" d="M10.5 115.9v4.8c0 1.8.8 2.6 1.9 2.6 1.2 0 2-.8 2-2.6v-4.8h1.1v4.7c0 2.5-1.3 3.5-3.1 3.5-1.7 0-2.9-.9-2.9-3.5v-4.8h1zm6.5 7c.3.2.9.4 1.4.4.8 0 1.1-.4 1.1-.9s-.3-.8-1.1-1.1c-1-.4-1.5-.9-1.5-1.6 0-.9.8-1.7 2-1.7.6 0 1.1.2 1.4.4l-.3.8c-.2-.1-.6-.3-1.2-.3s-1 .4-1 .8c0 .5.3.7 1.1 1 1 .4 1.5.9 1.5 1.8 0 1-.8 1.7-2.2 1.7-.6 0-1.2-.2-1.6-.4l.4-.9zm5.5-1.6c0 1.4.9 2 2 2 .8 0 1.2-.1 1.6-.3l.2.8c-.4.2-1 .4-1.9.4-1.8 0-2.9-1.2-2.9-2.9 0-1.8 1-3.1 2.7-3.1 1.9 0 2.4 1.7 2.4 2.7v.5h-4.1zm3.1-.8c0-.7-.3-1.7-1.5-1.7-1.1 0-1.5 1-1.6 1.7h3.1zm4.9 3.5v-5h-.8v-.8h.8v-.3c0-.8.2-1.6.7-2 .4-.4.9-.5 1.4-.5.4 0 .7.1.9.2l-.1.8c-.2-.1-.4-.1-.7-.1-.9 0-1.1.8-1.1 1.7v.3H33v.8h-1.4v5h-1.1zm8.5-2.9c0 2.1-1.5 3.1-2.9 3.1-1.6 0-2.8-1.2-2.8-3 0-1.9 1.3-3.1 2.9-3.1 1.7 0 2.8 1.2 2.8 3zm-4.6 0c0 1.3.7 2.2 1.8 2.2 1 0 1.8-.9 1.8-2.3 0-1-.5-2.2-1.7-2.2-1.3.1-1.9 1.2-1.9 2.3zm6-1.1v-1.8h.9v1.1c.3-.8.9-1.3 1.6-1.3h.3v1h-.4c-.7 0-1.3.6-1.4 1.4v3.6h-1v-4zm6.3 2.9c.3.2.9.4 1.4.4.8 0 1.1-.4 1.1-.9s-.3-.8-1.1-1.1c-1-.4-1.5-.9-1.5-1.6 0-.9.8-1.7 2-1.7.6 0 1.1.2 1.4.4l-.3.8c-.2-.1-.6-.3-1.2-.3s-1 .4-1 .8c0 .5.3.7 1.1 1 1 .4 1.5.9 1.5 1.8 0 1-.8 1.7-2.2 1.7-.6 0-1.2-.2-1.6-.4l.4-.9zm4.9-3.1v-1.6h.9v.9c.3-.6.9-1.1 1.8-1.1.8 0 1.4.5 1.6 1.2.2-.3.4-.6.6-.8.3-.3.7-.4 1.3-.4.8 0 1.9.5 1.9 2.5v3.4h-1v-3.3c0-1.1-.4-1.8-1.3-1.8-.6 0-1.1.4-1.2 1 0 .1-.1.3-.1.5v3.6h-1v-3.5c0-.9-.4-1.6-1.2-1.6-.7 0-1.1.5-1.3 1.1-.1.2-.1.3-.1.5v3.5h-1v-4.1zm13.2 4.2l-.1-.7c-.3.5-.9.9-1.8.9-1.2 0-1.8-.8-1.8-1.7 0-1.4 1.2-2.2 3.5-2.2v-.1c0-.5-.1-1.3-1.3-1.3-.5 0-1.1.2-1.5.4l-.2-.7c.5-.3 1.2-.5 1.9-.5 1.8 0 2.2 1.2 2.2 2.4v2.2c0 .5 0 1 .1 1.4h-1zm-.1-3c-1.2 0-2.5.2-2.5 1.3 0 .7.5 1 1 1 .8 0 1.2-.5 1.4-1 0-.1.1-.2.1-.3v-1zm2.7-5.5h1.1v8.5h-1.1v-8.5zm2.8 0h1.1v8.5h-1.1v-8.5zm3.4 5.8c0 1.4.9 2 2 2 .8 0 1.2-.1 1.6-.3l.2.8c-.4.2-1 .4-1.9.4-1.8 0-2.9-1.2-2.9-2.9 0-1.8 1-3.1 2.7-3.1 1.9 0 2.4 1.7 2.4 2.7v.5h-4.1zm3.1-.8c0-.7-.3-1.7-1.5-1.7-1.1 0-1.5 1-1.6 1.7h3.1zm2.4-.5v-1.8h.9v1.1c.3-.8.9-1.3 1.6-1.3h.3v1h-.4c-.7 0-1.3.6-1.4 1.4v3.6h-1v-4zm6.3 2.9c.3.2.9.4 1.4.4.8 0 1.1-.4 1.1-.9s-.3-.8-1.1-1.1c-1-.4-1.5-.9-1.5-1.6 0-.9.8-1.7 2-1.7.6 0 1.1.2 1.4.4l-.3.8c-.2-.1-.6-.3-1.2-.3s-1 .4-1 .8c0 .5.3.7 1.1 1 1 .4 1.5.9 1.5 1.8 0 1-.8 1.7-2.2 1.7-.6 0-1.2-.2-1.6-.4l.4-.9zm6-6.3c0 .4-.3.6-.7.6-.4 0-.6-.3-.6-.6 0-.4.3-.7.7-.7.4 0 .6.3.6.7zm-1.1 7.4v-5.8h1.1v5.8h-1.1zm2.1-.6L95 120c.3-.3.5-.6.8-.9h-3.1v-.9h4.4v.7l-2.6 3.4c-.2.3-.5.6-.7.9h3.4v.8h-4.7v-.6zm6.3-2.1c0 1.4.9 2 2 2 .8 0 1.2-.1 1.6-.3l.2.8c-.4.2-1 .4-1.9.4-1.8 0-2.9-1.2-2.9-2.9 0-1.8 1-3.1 2.7-3.1 1.9 0 2.4 1.7 2.4 2.7v.5h-4.1zm3.1-.8c0-.7-.3-1.7-1.5-1.7-1.1 0-1.5 1-1.6 1.7h3.1zm2.2 2.4c.3.2.9.4 1.4.4.8 0 1.1-.4 1.1-.9s-.3-.8-1.1-1.1c-1-.4-1.5-.9-1.5-1.6 0-.9.8-1.7 2-1.7.6 0 1.1.2 1.4.4l-.3.8c-.2-.1-.6-.3-1.2-.3s-1 .4-1 .8c0 .5.3.7 1.1 1 1 .4 1.5.9 1.5 1.8 0 1-.8 1.7-2.2 1.7-.6 0-1.2-.2-1.6-.4l.4-.9zm-93.5 647v4.8c0 1.8.8 2.6 1.9 2.6 1.2 0 2-.8 2-2.6v-4.8h1.1v4.7c0 2.5-1.3 3.5-3.1 3.5-1.7 0-2.9-.9-2.9-3.5v-4.8h1zm6.5 7c.3.2.9.4 1.4.4.8 0 1.1-.4 1.1-.9s-.3-.8-1.1-1.1c-1-.4-1.5-.9-1.5-1.6 0-.9.8-1.7 2-1.7.6 0 1.1.2 1.4.4l-.3.8c-.2-.1-.6-.3-1.2-.3s-1 .4-1 .8c0 .5.3.7 1.1 1 1 .4 1.5.9 1.5 1.8 0 1-.8 1.7-2.2 1.7-.6 0-1.2-.2-1.6-.4l.4-.9zm5.5-1.6c0 1.4.9 2 2 2 .8 0 1.2-.1 1.6-.3l.2.8c-.4.2-1 .4-1.9.4-1.8 0-2.9-1.2-2.9-2.9 0-1.8 1-3.1 2.7-3.1 1.9 0 2.4 1.7 2.4 2.7v.5h-4.1zm3.1-.8c0-.7-.3-1.7-1.5-1.7-1.1 0-1.5 1-1.6 1.7h3.1zm4.9 3.5v-5h-.8v-.8h.8v-.3c0-.8.2-1.6.7-2 .4-.4.9-.5 1.4-.5.4 0 .7.1.9.2l-.1.8c-.2-.1-.4-.1-.7-.1-.9 0-1.1.8-1.1 1.7v.3H33v.8h-1.4v5h-1.1zm8.5-2.9c0 2.1-1.5 3.1-2.9 3.1-1.6 0-2.8-1.2-2.8-3 0-1.9 1.3-3.1 2.9-3.1 1.7 0 2.8 1.2 2.8 3zm-4.6 0c0 1.3.7 2.2 1.8 2.2 1 0 1.8-.9 1.8-2.3 0-1-.5-2.2-1.7-2.2-1.3.1-1.9 1.2-1.9 2.3zm6-1.1v-1.8h.9v1.1c.3-.8.9-1.3 1.6-1.3h.3v1h-.4c-.7 0-1.3.6-1.4 1.4v3.6h-1v-4zm6.3 2.9c.3.2.9.4 1.4.4.8 0 1.1-.4 1.1-.9s-.3-.8-1.1-1.1c-1-.4-1.5-.9-1.5-1.6 0-.9.8-1.7 2-1.7.6 0 1.1.2 1.4.4l-.3.8c-.2-.1-.6-.3-1.2-.3s-1 .4-1 .8c0 .5.3.7 1.1 1 1 .4 1.5.9 1.5 1.8 0 1-.8 1.7-2.2 1.7-.6 0-1.2-.2-1.6-.4l.4-.9zm4.9-3.1v-1.6h.9v.9c.3-.6.9-1.1 1.8-1.1.8 0 1.4.5 1.6 1.2.2-.3.4-.6.6-.8.3-.3.7-.4 1.3-.4.8 0 1.9.5 1.9 2.5v3.4h-1v-3.3c0-1.1-.4-1.8-1.3-1.8-.6 0-1.1.4-1.2 1 0 .1-.1.3-.1.5v3.6h-1v-3.5c0-.9-.4-1.6-1.2-1.6-.7 0-1.1.5-1.3 1.1-.1.2-.1.3-.1.5v3.5h-1v-4.1zm13.2 4.2l-.1-.7c-.3.5-.9.9-1.8.9-1.2 0-1.8-.8-1.8-1.7 0-1.4 1.2-2.2 3.5-2.2v-.1c0-.5-.1-1.3-1.3-1.3-.5 0-1.1.2-1.5.4l-.2-.7c.5-.3 1.2-.5 1.9-.5 1.8 0 2.2 1.2 2.2 2.4v2.2c0 .5 0 1 .1 1.4h-1zm-.1-3c-1.2 0-2.5.2-2.5 1.3 0 .7.5 1 1 1 .8 0 1.2-.5 1.4-1 0-.1.1-.2.1-.3v-1zm2.7-5.5h1.1v8.5h-1.1v-8.5zm2.8 0h1.1v8.5h-1.1v-8.5zm3.4 5.8c0 1.4.9 2 2 2 .8 0 1.2-.1 1.6-.3l.2.8c-.4.2-1 .4-1.9.4-1.8 0-2.9-1.2-2.9-2.9 0-1.8 1-3.1 2.7-3.1 1.9 0 2.4 1.7 2.4 2.7v.5h-4.1zm3.1-.8c0-.7-.3-1.7-1.5-1.7-1.1 0-1.5 1-1.6 1.7h3.1zm2.4-.5v-1.8h.9v1.1c.3-.8.9-1.3 1.6-1.3h.3v1h-.4c-.7 0-1.3.6-1.4 1.4v3.6h-1v-4zm6.3 2.9c.3.2.9.4 1.4.4.8 0 1.1-.4 1.1-.9s-.3-.8-1.1-1.1c-1-.4-1.5-.9-1.5-1.6 0-.9.8-1.7 2-1.7.6 0 1.1.2 1.4.4l-.3.8c-.2-.1-.6-.3-1.2-.3s-1 .4-1 .8c0 .5.3.7 1.1 1 1 .4 1.5.9 1.5 1.8 0 1-.8 1.7-2.2 1.7-.6 0-1.2-.2-1.6-.4l.4-.9zm6-6.3c0 .4-.3.6-.7.6-.4 0-.6-.3-.6-.6 0-.4.3-.7.7-.7.4 0 .6.3.6.7zm-1.1 7.4v-5.8h1.1v5.8h-1.1zm2.1-.6L95 774c.3-.3.5-.6.8-.9h-3.1v-.9h4.4v.7l-2.6 3.4c-.2.3-.5.6-.7.9h3.4v.8h-4.7v-.6zm6.3-2.1c0 1.4.9 2 2 2 .8 0 1.2-.1 1.6-.3l.2.8c-.4.2-1 .4-1.9.4-1.8 0-2.9-1.2-2.9-2.9 0-1.8 1-3.1 2.7-3.1 1.9 0 2.4 1.7 2.4 2.7v.5h-4.1zm3.1-.8c0-.7-.3-1.7-1.5-1.7-1.1 0-1.5 1-1.6 1.7h3.1zm2.2 2.4c.3.2.9.4 1.4.4.8 0 1.1-.4 1.1-.9s-.3-.8-1.1-1.1c-1-.4-1.5-.9-1.5-1.6 0-.9.8-1.7 2-1.7.6 0 1.1.2 1.4.4l-.3.8c-.2-.1-.6-.3-1.2-.3s-1 .4-1 .8c0 .5.3.7 1.1 1 1 .4 1.5.9 1.5 1.8 0 1-.8 1.7-2.2 1.7-.6 0-1.2-.2-1.6-.4l.4-.9z"/>
    <path class="st5" d="M-178 621l-91.9-45.9c-.4-.2-.9-.3-1.3-.3h-.1c-1.1 0-2.2.6-2.8 1.5l-56.6 92 63.2 102.7 90.4-146.9c.6-1.1.2-2.5-.9-3.1zm-182.7 14.9v99.2l88.1 44m7.7 3.8l80.9 40.5c4.4 2.2 8 0 8-5v-180l-88.9 144.5zm-105.5-161.4l-84.8-42.4-5.4-2.7c-.8-.4-1.5-.6-2.2-.6-.9 0-1.7.4-2.3 1.1-.6.7-.9 1.6-.9 2.8v193.4c0 3.3 2.4 7.2 5.4 8.7l83.3 41.6c1.2.6 2.3.9 3.3.9 2.8 0 4.8-2.2 4.8-5.8V623.4c0-.8-.5-1.6-1.2-1.9zm475.6 49.1l-31.7-15.9c-.2-.1-.4-.2-.7-.2-.3-.1-.6-.1-.9-.1-1.2 0-2.4.6-3.1 1.7l-18.2 29.5 22.8 37.1 31.7-51.6c.3-.2.3-.4.1-.5zm-64.4 8.3v33.6l29.9 14.9m4.4 2.3L99.7 742c3.2 1.6 5.8.5 5.8-2.5v-59.2l-30.4 49.4zm-39.5-59L4.8 655.2c-.6-.3-1.1-.4-1.6-.4-1.4 0-2.3 1-2.3 2.8v66.6c0 1.8 1.3 3.9 2.9 4.7L31 742.5c.7.3 1.4.5 2 .5 1.7 0 2.9-1.3 2.9-3.5V671c-.1-.2-.2-.3-.3-.3z"/>
</svg>
